<?xml version="1.0" encoding="UTF-8"?>
<svg id="Layer_1" data-name="Layer 1" xmlns="http://www.w3.org/2000/svg" viewBox="0 0 96 96">
  <defs>
    <style>
      .cls-1 {
        fill: #00acc1;
        stroke-width: 0px;
      }
    </style>
  </defs>
  <path class="cls-1" d="m48,19.21c-12.8,0-20.8,6.4-24,19.19,4.8-6.4,10.4-8.8,16.8-7.2,3.65.91,6.26,3.56,9.15,6.49,4.7,4.77,10.15,10.3,22.05,10.3,12.8,0,20.8-6.4,24-19.2-4.8,6.4-10.4,8.8-16.8,7.2-3.65-.91-6.26-3.56-9.15-6.49-4.71-4.78-10.15-10.3-22.05-10.3h0Zm-24,28.79c-12.8,0-20.8,6.4-24,19.2,4.8-6.4,10.4-8.8,16.8-7.2,3.65.91,6.26,3.56,9.15,6.49,4.71,4.78,10.15,10.3,22.05,10.3,12.8,0,20.8-6.4,24-19.2-4.8,6.4-10.4,8.8-16.8,7.2-3.65-.91-6.26-3.56-9.15-6.49-4.7-4.78-10.15-10.3-22.05-10.3h0Z"/>
</svg>